<?xml version="1.0" encoding="UTF-8"?>
<svg id="Layer_2" data-name="Layer 2" xmlns="http://www.w3.org/2000/svg" viewBox="0 0 272.62 147.99">
  <defs>
    <style>
      .cls-1 {
        fill: #ff2c3c;
      }

      .cls-1, .cls-2 {
        stroke-width: 0px;
      }

      .cls-2 {
        fill: #ff7866;
      }
    </style>
  </defs>
  <g id="Layer_1-2" data-name="Layer 1">
    <g>
      <g>
        <polygon class="cls-1" points="272.62 147.99 171.62 147.99 167.12 94.99 180.27 62.99 249.99 62.99 272.62 147.99"/>
        <polygon class="cls-2" points="260.38 116.47 188.75 116.47 184.86 66.81 246.75 66.81 260.38 116.47"/>
      </g>
      <g>
        <polygon class="cls-1" points="175.12 76.98 98.14 76.98 105.06 0 168.2 0 175.12 76.98"/>
        <polygon class="cls-2" points="169.07 48.44 104.19 48.44 108.6 3.46 164.65 3.46 169.07 48.44"/>
      </g>
      <polygon class="cls-1" points="217.74 98.18 216.25 83.38 225.33 90.04 217.74 98.18"/>
      <g>
        <polygon class="cls-1" points="0 147.97 101 147.97 105.5 94.97 92.35 62.97 22.63 62.97 0 147.97"/>
        <polygon class="cls-2" points="12.24 116.45 83.87 116.45 87.76 66.79 25.87 66.79 12.24 116.45"/>
      </g>
      <g>
        <polygon class="cls-1" points="181.12 147.99 92.12 147.99 100.12 58.99 173.12 58.99 181.12 147.99"/>
        <polygon class="cls-2" points="174.12 114.99 99.12 114.99 104.22 62.99 169.02 62.99 174.12 114.99"/>
      </g>
      <polygon class="cls-1" points="54.88 98.16 56.37 83.36 47.29 90.02 54.88 98.16"/>
      <polygon class="cls-1" points="126.12 85.99 148.03 85.99 136.92 97.1 126.12 85.99"/>
      <polygon class="cls-1" points="128.84 27.71 145.35 27.71 136.98 19.34 128.84 27.71"/>
    </g>
  </g>
</svg>