<?xml version="1.0" encoding="UTF-8"?>
<svg id="Layer_2" data-name="Layer 2" xmlns="http://www.w3.org/2000/svg" viewBox="0 0 184.59 240.67">
  <defs>
    <style>
      .cls-1 {
        fill: #ee5e6d;
      }

      .cls-1, .cls-2, .cls-3, .cls-4, .cls-5, .cls-6, .cls-7, .cls-8 {
        stroke-width: 0px;
      }

      .cls-2 {
        fill: #c71335;
      }

      .cls-3 {
        fill: #f93240;
      }

      .cls-4 {
        fill: #e2566a;
      }

      .cls-5 {
        fill: #fa7a69;
      }

      .cls-6 {
        fill: #fb867d;
      }

      .cls-7 {
        fill: #fb8983;
      }

      .cls-8 {
        fill: #fb787a;
      }
    </style>
  </defs>
  <g id="Layer_2-2" data-name="Layer 2">
    <g>
      <path class="cls-3" d="M120.13,40.56c10.44,13.25,21.19,26.26,30.96,40.03-.99,3.25-3.55,5.47-5.48,8.08-6.85,9.26-13.81,18.44-20.79,27.6-1.03,1.36-1.63,3.39-3.92,3.32-1.89-.36-3.25-1.58-4.39-3-8.45-10.53-16.85-21.1-24.91-31.94-.79-1.07-1.41-2.23-1.62-3.57-.12-.94-.01-1.85.34-2.74,8.34-12.29,17.68-23.83,26.58-35.71.8-1.06,1.78-1.97,3.23-2.07Z"/>
      <path class="cls-5" d="M89.07,1.09c9.96,12.66,19.93,25.33,29.89,37.99,1.08,2.2-.79,3.36-1.8,4.71-8.7,11.63-17.46,23.22-26.19,34.81-.34.48-.71.94-1.1,1.38-1.83.46-2.76-.91-3.64-2.02-8.73-11.02-17.31-22.16-25.93-33.26-.71-.92-1.18-1.99-1.38-3.16-.95-2,.15-3.43,1.27-4.92,8.54-11.3,17.03-22.62,25.61-33.89.74-.97,1.23-3.03,3.27-1.64Z"/>
      <path class="cls-5" d="M124.48,202.34c-2.49-.78-3.11,1.41-4.12,2.74-7.73,10.16-15.39,20.37-23.07,30.56q-3.85,5.11-7.95-.13c-9.09-11.59-18.2-23.17-27.3-34.75-.41-1.84.63-3.18,1.61-4.5,8-10.71,16.03-21.4,24.15-32.03,1.01-1.32,2.12-2.55,3.85-2.9,3.47-.17,4.64,2.78,6.28,4.88,8.62,11.02,17.13,22.12,25.94,32.99.28.37.52.77.72,1.19.27.67.4,1.33-.13,1.94Z"/>
      <path class="cls-2" d="M124.48,202.34c-.07-.38-.13-.76-.2-1.14-.39-2.21.92-3.78,2.1-5.36,7.53-10.05,15.05-20.11,22.72-30.05,1.25-1.61,2.18-4.46,5.33-3.04,9.72,12.36,19.42,24.74,29.21,37.04,1.3,1.63,1.21,2.79.03,4.35-8.82,11.62-17.63,23.25-26.33,34.96-2.32,3.12-3.41.92-4.73-.76-9.39-11.99-18.76-24-28.14-36Z"/>
      <path class="cls-3" d="M123.29,200.45c-9.65-12.2-19.29-24.4-28.92-36.61-.39-.5-.54-1.19-.79-1.79-1.11-.22-1.77-.82-1.69-2.04.2-1.36.95-2.46,1.74-3.52,7.93-10.61,15.86-21.21,23.95-31.7,1.36-1.76,2.78-4.68,5.76-1.78,9.94,12.63,19.89,25.25,29.83,37.88-.76,2.81-2.94,4.69-4.58,6.9-7.26,9.77-14.61,19.48-21.97,29.17-.97,1.27-1.57,2.94-3.32,3.49Z"/>
      <path class="cls-3" d="M60.44,42.08c6.87,10.2,14.94,19.49,22.33,29.29,2.17,2.88,4.36,5.76,6.54,8.64.36,2.23-1.09,3.73-2.25,5.29-7.6,10.17-15.24,20.31-22.93,30.42-1.18,1.55-2.22,3.36-4.5,3.55-10.31-13.33-20.61-26.66-30.92-39.99,1.51-3.94,4.59-6.81,7.02-10.11,6.57-8.93,13.32-17.73,19.98-26.59,1.43-1.9,2.8-3.7,4.73-.49Z"/>
      <path class="cls-2" d="M30.22,237.91c-9.75-12.46-19.51-24.91-29.26-37.37-.5-.98-.41-1.92.26-2.78,9.64-12.44,18.54-25.46,28.72-37.49,2.14-.07,3.19,1.55,4.28,2.95,8.61,11.06,17.04,22.26,25.99,33.06.74.89,1.41,1.84,1.39,3.09-.16,1.2-.81,2.13-1.51,3.06-8.62,11.43-17.22,22.89-25.89,34.28-.91,1.2-1.75,3.85-3.98,1.2Z"/>
      <path class="cls-1" d="M30.86,160.75c-11.03,12.46-21.15,25.61-29.89,39.8-2.48-2.43.51-3.57,1.43-4.79,17.79-23.78,35.71-47.46,53.59-71.18,1.29-1.72,2.44-3.55,3.66-5.32,9.89-13.08,19.78-26.17,29.67-39.25.18-.26.38-.52.58-.76.53-.16.78.01.71.58.09.45.17.9.26,1.34-1.67,4.02-4.69,7.13-7.21,10.56-7.3,9.95-15.03,19.57-22.05,29.73-9.3,11.38-17.76,23.39-26.72,35.03-1.19,1.55-2.07,3.41-4.02,4.26Z"/>
      <path class="cls-1" d="M123.34,123.01c-2.36-1.24-3.24.65-4.3,2.06-8.96,11.9-17.9,23.81-26.85,35.72-.59.09-1.14-.03-1.64-.37-1.06-1.02-1.03-2.02.06-3.01,4.38-3.66,7.3-8.53,10.66-13.02,6.43-8.59,13.33-16.84,18.95-26.02,2.82,1.43,3.38-1.28,4.41-2.63,8.9-11.64,17.7-23.35,26.54-35.04.4,1.97-1.25,2.94-2.17,4.18-8.1,10.85-16.26,21.66-24.43,32.46-1.31,1.73-2.78,3.35-1.21,5.66Z"/>
      <path class="cls-7" d="M91.31,160.23c.29.19.58.38.87.56.47.42.93.84,1.4,1.25-2.28-.09-3.49,1.36-4.72,3.01-8.91,11.92-17.87,23.81-26.81,35.7-9.2,12.16-18.37,24.34-27.64,36.45-.98,1.28-2.09,4.79-4.19.7,1.46.88,2.37.21,3.26-.98,8.89-11.85,17.82-23.66,26.68-35.52.55-.74.66-1.81.98-2.73.87-2.97,3.06-5.1,4.83-7.48,6.56-8.78,13.15-17.53,19.78-26.25,1.49-1.96,2.83-4.17,5.55-4.72Z"/>
      <path class="cls-6" d="M60.44,42.08c-2.63-2.34-3.67.03-4.92,1.68-8.94,11.83-17.87,23.67-26.81,35.51-.6-1.8.91-2.71,1.74-3.82C48.76,51.17,67.09,26.89,85.54,2.71c.63-.83.86-4.51,3.53-1.61-2.01.01-2.69,1.71-3.65,2.97-8.05,10.63-15.98,21.34-24.15,31.87-1.64,2.12-1.92,3.91-.84,6.14Z"/>
      <path class="cls-8" d="M90.59,79.82c-.23-.2-.47-.39-.71-.58,8.78-11.66,17.57-23.31,26.35-34.98,1.19-1.58,2.64-3.03,2.72-5.19.64.36,1.44.59,1.24,1.6-9.87,13.05-19.73,26.1-29.6,39.14Z"/>
      <path class="cls-4" d="M123.29,200.45c9.96-13.19,19.92-26.37,29.88-39.56.81.35,1.19,1,1.27,1.85-1.38-.08-2.05.91-2.74,1.84-9.14,12.2-18.27,24.41-27.41,36.62-.33-.25-.66-.5-.99-.75Z"/>
      <path class="cls-2" d="M120.21,118.38c.81,2.1-.1,3.68-1.36,5.34-8.18,10.74-16.25,21.56-24.43,32.3-.97,1.28-1.6,3.62-4.12,2.25-3,.11-4.27-2.29-5.66-4.2-6.76-9.25-14.34-17.84-21.24-26.97-1.35-1.79-3.22-3.43-2.58-6.09.51-1.19.81-2.54,1.56-3.55,8.67-11.6,17.4-23.16,26.12-34.72.6-.79,1.21-1.58,2.35-1.57,9.39,12.71,18.81,25.4,29.35,37.21Z"/>
      <path class="cls-3" d="M60.82,121c9.4,12.76,19.04,25.33,29.48,37.26-.18.92.4,1.45,1.01,1.97-8.77,11.63-17.52,23.27-26.35,34.87-1.05,1.38-1.64,3.36-3.82,3.58-7.39-6.39-12.26-14.88-18.47-22.25-4.21-5-7.9-10.43-11.82-15.68.55-1.19.91-2.51,1.68-3.54,8.62-11.53,17.3-23.02,25.97-34.52.6-.79,1.19-1.61,2.31-1.69Z"/>
    </g>
  </g>
</svg>