<?xml version="1.0" encoding="UTF-8"?>
<svg id="Layer_2" data-name="Layer 2" xmlns="http://www.w3.org/2000/svg" viewBox="0 0 323.02 121.85">
  <defs>
    <style>
      .cls-1 {
        fill: #000;
      }

      .cls-1, .cls-2, .cls-3, .cls-4, .cls-5 {
        stroke-width: 0px;
      }

      .cls-2 {
        fill: none;
      }

      .cls-3 {
        fill: #ff2c3c;
      }

      .cls-4 {
        fill: #ff7866;
      }

      .cls-5 {
        fill: #cc0933;
      }
    </style>
  </defs>
  <g id="Layer_1-2" data-name="Layer 1">
    <rect class="cls-3" x="114" y="24.7" width="23" height="28"/>
    <rect class="cls-5" x="114" y="68.7" width="23" height="28"/>
    <rect class="cls-5" x="140" y="68.7" width="23" height="28"/>
    <rect class="cls-3" x="141" y="24.7" width="23" height="28"/>
    <rect class="cls-3" x="203" y="24.7" width="23" height="28"/>
    <rect class="cls-3" x="228" y="24.7" width="23" height="28"/>
    <polygon class="cls-3" points="271.91 37.94 271.91 40.22 274.19 40.22 274.19 42.49 276.46 42.49 276.46 51.6 269.64 51.6 269.64 49.32 267.36 49.32 267.36 47.04 265.08 47.04 265.08 49.32 262.81 49.32 262.81 51.6 255.98 51.6 255.98 42.49 258.26 42.49 258.26 40.22 260.53 40.22 260.53 37.94 258.26 37.94 258.26 35.67 255.98 35.67 255.98 26.56 262.81 26.56 262.81 28.84 265.08 28.84 265.08 31.11 267.36 31.11 267.36 28.84 269.64 28.84 269.64 26.56 276.46 26.56 276.46 35.67 274.19 35.67 274.19 37.94 271.91 37.94"/>
    <path class="cls-3" d="M185.83,28.84v-2.28h-18.2v25.04h18.2v-2.28h2.28v-20.48h-2.28ZM179.01,44.77h-2.28v-11.38h2.28v11.38Z"/>
    <polygon class="cls-3" points="104.52 90.81 104.52 31.04 52.76 1.15 1 31.04 1 90.81 52.76 120.69 104.52 90.81"/>
    <polygon class="cls-4" points="1 31.04 104.52 90.81 52.76 120.69 1 90.81 1 31.04"/>
    <polygon class="cls-5" points="52.76 120.69 52.76 60.92 104.52 31.04 104.52 90.81 52.76 120.69"/>
    <path class="cls-1" d="M52.76,121.85l-.5-.29L0,91.39V30.46L52.76,0l.5.29,52.26,30.17v60.92l-52.76,30.46ZM2,90.23l50.76,29.31,50.76-29.31V31.62L52.76,2.31,2,31.62v58.62Z"/>
    <path class="cls-1" d="M113.21,53.87v-29.58h25.03v29.58h-25.03ZM135.97,51.59v-9.1h-4.55v-2.28h4.55v-13.66h-20.48v25.03h9.1v-6.83h2.28v6.83h9.1ZM124.59,37.94v-6.83h2.28v6.83h-2.28Z"/>
    <path class="cls-1" d="M139.28,53.87v-29.58h25.03v29.58h-25.03ZM162.04,51.59v-6.83h-9.1v-2.28h9.1v-6.83h-9.1v-2.28h9.1v-6.83h-20.48v25.03h20.48Z"/>
    <path class="cls-2" d="M190.38,28.84h-.38M190,28.84v20.48h.38v-20.48h-.38Z"/>
    <rect class="cls-1" x="176.73" y="33.39" width="2.28" height="11.38"/>
    <polygon class="cls-1" points="167 24.7 167 52.7 185.83 52.7 185.83 53.87 165.35 53.87 165.35 24.29 185.83 24.29 185.83 24.7 167 24.7"/>
    <rect class="cls-1" x="185.83" y="49.32" width="2.28" height="2.28"/>
    <rect class="cls-1" x="185.83" y="26.56" width="2.28" height="2.28"/>
    <rect class="cls-1" x="188.11" y="28.84" width="1.89" height="20.48"/>
    <polygon class="cls-1" points="167.63 26.56 167.63 51.6 185.83 51.6 185.83 52.7 167 52.7 167 24.7 185.83 24.7 185.83 26.56 167.63 26.56"/>
    <path class="cls-1" d="M201.56,53.87v-29.58h25.03v29.58h-25.03ZM224.32,51.59v-11.38h-4.55v-2.28h4.55v-11.38h-20.48v25.03h20.48ZM212.94,35.66v-4.55h2.28v4.55h-2.28ZM212.94,47.04v-4.55h2.28v4.55h-2.28Z"/>
    <path class="cls-1" d="M227.63,53.87v-29.58h25.03v29.58h-25.03ZM250.39,51.59v-25.03h-20.48v25.03h20.48ZM239.01,44.77v-11.38h2.28v11.38h-2.28Z"/>
    <rect class="cls-1" x="255.98" y="35.67" width="2.28" height="2.27"/>
    <rect class="cls-1" x="258.26" y="37.94" width="2.27" height="2.28"/>
    <rect class="cls-1" x="255.98" y="40.22" width="2.28" height="2.27"/>
    <polygon class="cls-1" points="262.81 52.7 262.81 53.87 253.71 53.87 253.71 42.49 255 42.49 255 52.7 262.81 52.7"/>
    <polygon class="cls-1" points="262.81 51.6 262.81 52.7 255 52.7 255 42.49 255.98 42.49 255.98 51.6 262.81 51.6"/>
    <rect class="cls-1" x="262.81" y="49.32" width="2.27" height="2.28"/>
    <rect class="cls-1" x="265.08" y="47.04" width="2.28" height="2.28"/>
    <rect class="cls-1" x="267.36" y="49.32" width="2.28" height="2.28"/>
    <polygon class="cls-1" points="278.74 42.49 278.74 53.87 269.64 53.87 269.64 52.7 278 52.7 278 42.49 278.74 42.49"/>
    <polygon class="cls-1" points="278 42.49 278 52.7 269.64 52.7 269.64 51.6 276.46 51.6 276.46 42.49 278 42.49"/>
    <rect class="cls-1" x="274.19" y="40.22" width="2.27" height="2.27"/>
    <rect class="cls-1" x="271.91" y="37.94" width="2.28" height="2.28"/>
    <rect class="cls-1" x="274.19" y="35.67" width="2.27" height="2.27"/>
    <polygon class="cls-1" points="278.74 24.29 278.74 35.67 278 35.67 278 24.7 269.64 24.7 269.64 24.29 278.74 24.29"/>
    <polygon class="cls-1" points="278 24.7 278 35.67 276.46 35.67 276.46 26.56 269.64 26.56 269.64 24.7 278 24.7"/>
    <rect class="cls-1" x="267.36" y="26.56" width="2.28" height="2.28"/>
    <rect class="cls-1" x="265.08" y="28.84" width="2.28" height="2.27"/>
    <rect class="cls-1" x="262.81" y="26.56" width="2.27" height="2.28"/>
    <polygon class="cls-1" points="262.81 24.29 262.81 24.7 255 24.7 255 35.67 253.71 35.67 253.71 24.29 262.81 24.29"/>
    <polygon class="cls-1" points="262.81 24.7 262.81 26.56 255.98 26.56 255.98 35.67 255 35.67 255 24.7 262.81 24.7"/>
    <path class="cls-1" d="M113.21,97.56v-29.58h25.03v29.58h-25.03ZM135.97,95.29v-15.93h-9.1v-2.28h9.1v-6.83h-20.48v15.93h9.1v2.28h-9.1v6.83h20.48Z"/>
    <polygon class="cls-5" points="167 68.7 189.05 68.7 189.05 87.7 178 87.7 178 96.7 166.14 96.7 166.14 68.7 167 68.7"/>
    <path class="cls-1" d="M139.28,97.56v-29.58h25.03v29.58h-25.03ZM162.04,95.29v-25.03h-20.48v25.03h20.48ZM150.66,88.46v-11.38h2.28v11.38h-2.28Z"/>
    <polygon class="cls-5" points="192.81 68.7 212.94 68.7 212.94 78.33 208 78.33 208 96.7 196.86 96.7 196.86 78.7 192.81 78.7 192.81 68.7"/>
    <path class="cls-1" d="M165.35,97.56v-29.58h25.03v20.48h-11.38v9.1h-13.65ZM176.73,95.29v-9.1h11.38v-6.83h-11.38v-2.28h11.38v-6.83h-20.48v25.03h9.1Z"/>
    <rect class="cls-5" x="216" y="68.7" width="28" height="28"/>
    <rect class="cls-5" x="247" y="68.7" width="23" height="28"/>
    <rect class="cls-5" x="272" y="68.7" width="23" height="28"/>
    <rect class="cls-5" x="299" y="68.7" width="23" height="28"/>
    <path class="cls-1" d="M195.97,97.56v-18.21h-4.55v-11.38h22.76v11.38h-4.55v18.21h-13.65ZM207.35,95.29v-18.21h4.55v-6.83h-18.21v6.83h4.55v18.21h9.1Z"/>
    <path class="cls-1" d="M215.22,97.56v-29.58h29.58v29.58h-29.58ZM242.53,95.29v-25.03h-6.83v9.1h-2.28v-9.1h-6.83v9.1h-2.28v-9.1h-6.83v25.03h11.38v-6.83h2.28v6.83h11.38Z"/>
    <path class="cls-1" d="M245.84,97.56v-29.58h25.03v29.58h-25.03ZM268.6,95.29v-25.03h-20.48v25.03h9.1v-9.1h2.28v9.1h9.1ZM257.22,81.63v-6.83h2.28v6.83h-2.28Z"/>
    <path class="cls-1" d="M271.91,97.56v-29.58h25.03v29.58h-25.03ZM294.67,95.29v-9.1h-4.55v-2.28h4.55v-13.66h-20.48v25.03h9.1v-6.83h2.28v6.83h9.1ZM283.29,81.63v-6.83h2.28v6.83h-2.28Z"/>
    <path class="cls-1" d="M297.98,97.56v-29.58h25.03v29.58h-25.03ZM320.74,95.29v-6.83h-9.1v-2.28h9.1v-6.83h-9.1v-2.28h9.1v-6.83h-20.48v25.03h20.48Z"/>
  </g>
</svg>